<?xml version="1.0" standalone="no"?>
<!DOCTYPE svg PUBLIC "-//W3C//DTD SVG 20010904//EN"
 "http://www.w3.org/TR/2001/REC-SVG-20010904/DTD/svg10.dtd">
<svg version="1.0" xmlns="http://www.w3.org/2000/svg"
 width="1950.000000pt" height="480.000000pt" viewBox="0 0 1950.000000 480.000000"
 preserveAspectRatio="xMidYMid meet">

<g transform="translate(0.000000,480.000000) scale(0.100000,-0.100000)"
fill="#000000" stroke="none">
<path d="M4290 2456 l0 -2346 440 0 440 0 2 861 3 860 52 -78 c28 -43 88 -130
133 -193 45 -63 97 -137 116 -165 18 -27 68 -97 109 -155 41 -58 95 -134 120
-170 24 -36 72 -103 105 -150 90 -127 179 -254 238 -339 28 -42 81 -116 117
-166 35 -49 81 -115 101 -145 20 -30 55 -79 77 -107 l39 -53 539 0 c297 0 539
2 539 6 0 7 -111 157 -121 164 -4 3 -36 44 -71 92 -35 47 -104 139 -153 204
-50 66 -126 166 -169 223 -43 57 -84 111 -92 120 -7 9 -39 50 -71 92 -32 42
-105 138 -163 214 -114 150 -181 238 -278 367 -34 45 -77 101 -94 122 -57 69
-87 114 -81 120 4 3 17 6 31 6 83 0 297 67 438 136 177 89 344 227 468 389 75
99 83 111 155 260 183 379 208 815 69 1220 -17 50 -36 101 -43 115 -7 14 -20
41 -29 60 -48 102 -142 233 -239 331 -66 66 -196 168 -249 195 -18 9 -40 22
-48 28 -8 7 -49 27 -90 45 -41 18 -84 37 -95 42 -54 25 -225 73 -360 101
l-150 32 -867 4 -868 3 0 -2345z m1592 1480 c124 -16 231 -47 331 -97 89 -45
213 -173 255 -263 93 -196 80 -511 -27 -687 -41 -68 -151 -167 -230 -208 -75
-38 -217 -85 -296 -97 -22 -3 -199 -8 -392 -11 l-353 -5 0 691 0 691 298 0
c199 0 336 -5 414 -14z"/>
<path d="M9512 4778 c-6 -13 -39 -90 -72 -173 -33 -82 -67 -163 -75 -180 -13
-27 -67 -155 -115 -275 -10 -25 -40 -99 -68 -165 -27 -66 -71 -172 -97 -235
-25 -63 -53 -128 -62 -145 -8 -16 -19 -41 -23 -55 -5 -14 -34 -86 -65 -160
-31 -74 -79 -189 -107 -255 -27 -66 -58 -140 -68 -165 -38 -94 -118 -286 -132
-320 -9 -19 -25 -57 -36 -85 -47 -113 -84 -202 -97 -230 -7 -16 -33 -79 -58
-140 -55 -136 -64 -156 -93 -223 -13 -29 -24 -56 -24 -59 0 -4 -9 -25 -19 -47
-11 -23 -26 -59 -34 -81 -23 -62 -95 -234 -122 -292 -14 -28 -25 -58 -25 -65
0 -8 -4 -18 -8 -23 -5 -6 -26 -53 -47 -105 -21 -52 -46 -113 -56 -135 -9 -22
-35 -85 -58 -141 -22 -55 -47 -114 -56 -130 -8 -16 -15 -37 -15 -46 0 -9 -4
-19 -9 -22 -4 -3 -19 -34 -31 -68 -13 -35 -32 -79 -42 -98 -10 -19 -18 -42
-18 -50 0 -9 -4 -20 -9 -25 -5 -6 -28 -57 -51 -115 -23 -58 -50 -123 -60 -145
-10 -22 -34 -79 -53 -127 l-35 -88 478 0 479 0 6 23 c4 12 18 47 30 77 13 30
53 129 89 220 35 91 89 229 120 307 31 79 56 145 56 148 0 2 11 28 23 57 13
29 32 76 42 103 10 28 22 54 26 60 5 5 9 15 9 23 0 8 7 28 15 45 8 18 26 64
41 102 14 39 34 90 44 115 10 25 33 81 50 125 17 44 41 103 52 130 32 80 69
177 87 225 10 25 25 62 34 84 9 21 17 42 17 47 0 5 11 32 24 61 13 29 40 97
60 151 20 53 43 112 51 130 8 17 44 109 81 202 84 215 79 207 94 159 7 -21 21
-57 31 -79 19 -43 73 -178 145 -365 25 -63 51 -128 58 -145 8 -16 31 -75 52
-130 20 -55 40 -104 44 -110 4 -5 13 -28 20 -50 7 -22 21 -58 30 -80 10 -22
23 -53 28 -70 16 -46 71 -178 82 -197 5 -10 10 -22 10 -28 0 -15 52 -130 59
-129 3 0 29 48 58 107 28 59 100 208 161 332 l109 225 21 -46 c12 -26 31 -73
43 -105 12 -33 25 -63 30 -68 5 -6 9 -17 9 -25 0 -9 6 -28 14 -43 8 -14 20
-43 26 -65 7 -21 20 -54 28 -73 9 -19 23 -55 33 -80 9 -25 28 -74 42 -110 14
-36 35 -87 45 -115 11 -27 38 -95 60 -150 22 -55 59 -147 82 -205 59 -147 79
-197 102 -260 11 -30 28 -74 39 -97 10 -23 19 -48 19 -55 0 -8 4 -18 8 -23 7
-8 87 -208 131 -327 l11 -28 485 0 c267 0 485 1 485 3 0 6 -41 109 -75 187
-20 47 -40 96 -45 110 -4 14 -17 45 -28 70 -11 25 -27 61 -35 80 -41 98 -139
336 -206 500 -11 25 -33 79 -51 120 -17 41 -41 98 -52 125 -11 28 -29 68 -38
90 -10 22 -39 90 -63 150 -55 135 -64 156 -93 223 -13 29 -24 55 -24 59 0 3
-11 31 -24 62 -13 31 -47 112 -76 181 -28 69 -60 143 -70 166 -11 23 -20 48
-20 56 0 8 -4 18 -9 24 -5 5 -30 61 -55 124 -26 63 -53 129 -61 145 -7 17 -32
75 -54 131 -22 55 -47 114 -56 130 -8 16 -15 34 -15 40 0 5 -11 32 -24 60 -13
27 -29 66 -35 86 -7 21 -17 40 -22 43 -5 4 -9 14 -9 23 0 9 -7 30 -15 46 -9
16 -34 75 -56 130 -23 56 -49 119 -58 141 -10 22 -35 83 -56 135 -22 52 -45
104 -52 115 -7 11 -13 26 -13 35 0 8 -7 28 -15 44 -9 16 -33 75 -55 130 -22
56 -45 109 -50 118 -5 9 -26 58 -45 109 -20 51 -45 111 -55 133 -10 23 -35 82
-55 131 -21 50 -43 103 -51 119 -8 16 -14 33 -14 38 0 5 -11 33 -24 61 -32 70
-72 167 -81 195 l-6 22 -358 0 -358 0 -11 -22z"/>
<path d="M13950 3038 c0 -1034 -4 -1793 -10 -1835 -10 -79 -52 -180 -95 -231
-70 -84 -167 -121 -312 -122 -100 0 -173 18 -241 59 -76 47 -115 116 -158 279
-3 9 -99 12 -439 12 l-435 0 0 -33 c0 -139 69 -401 130 -497 5 -8 19 -33 31
-55 54 -100 189 -251 314 -352 60 -48 175 -115 253 -149 31 -13 65 -29 74 -34
10 -5 34 -14 55 -19 21 -6 72 -20 113 -32 70 -21 94 -23 355 -23 278 -1 281
-1 366 27 48 15 92 27 98 27 6 0 59 23 117 50 251 121 425 313 543 600 31 77
81 251 87 305 2 17 11 73 20 125 16 87 18 250 21 1878 l4 1782 -446 0 -445 0
0 -1762z"/>
<path d="M15690 2455 l0 -2346 863 3 c843 3 865 4 1002 26 293 48 597 132 726
202 20 11 41 20 47 20 17 0 216 115 303 175 107 74 229 184 339 307 246 274
411 632 495 1078 24 129 28 175 32 420 3 151 1 336 -5 410 -19 248 -93 564
-177 755 -60 136 -83 185 -102 214 -13 19 -23 38 -23 43 0 8 -117 187 -129
198 -3 3 -24 28 -46 55 -314 397 -780 641 -1430 751 l-160 27 -867 5 -868 4 0
-2347z m1560 1481 c205 -17 426 -66 555 -122 17 -7 52 -22 79 -34 82 -35 206
-114 288 -184 76 -65 194 -198 230 -260 31 -52 128 -254 128 -266 0 -6 9 -37
20 -70 66 -197 99 -567 69 -787 -25 -190 -68 -365 -114 -468 -8 -16 -21 -46
-29 -65 -66 -147 -198 -306 -358 -428 -83 -64 -267 -153 -398 -194 -252 -78
-429 -96 -912 -97 l-248 -1 0 1495 0 1495 263 0 c144 0 336 -7 427 -14z"/>
<path d="M1585 3723 c-167 -23 -350 -74 -490 -138 -27 -12 -61 -28 -75 -34
-65 -29 -258 -154 -301 -193 -14 -13 -52 -47 -86 -76 -81 -71 -214 -223 -286
-329 -173 -252 -311 -616 -338 -887 -11 -117 -11 -335 0 -451 10 -99 48 -263
87 -377 158 -458 478 -841 869 -1040 157 -80 223 -105 395 -149 164 -42 286
-52 570 -46 209 5 257 9 325 27 44 12 96 25 115 29 57 12 218 71 310 113 210
96 432 268 583 451 87 105 173 228 202 290 9 18 33 66 55 107 63 122 112 110
-436 110 l-476 0 -78 -73 c-156 -147 -338 -224 -583 -248 -100 -9 -151 -9
-235 0 -105 12 -208 36 -227 53 -5 4 -16 8 -25 8 -30 0 -164 77 -243 140 -45
36 -105 97 -135 135 -54 70 -147 249 -159 305 l-5 30 1369 0 1370 0 7 43 c15
95 18 395 7 512 -7 66 -15 140 -17 165 -2 25 -13 86 -25 135 -91 392 -292 734
-579 983 -83 72 -192 152 -206 152 -4 0 -15 6 -23 14 -21 18 -205 111 -256
129 -192 68 -252 84 -413 107 -170 24 -401 25 -567 3z m465 -812 c118 -21 150
-31 255 -81 214 -102 416 -344 470 -562 l7 -28 -940 0 -940 0 18 49 c10 28 32
76 50 108 18 32 39 72 48 88 24 47 241 256 304 293 223 132 477 178 728 133z"/>
</g>
</svg>
