<?xml version="1.0" standalone="no"?>
<!DOCTYPE svg PUBLIC "-//W3C//DTD SVG 20010904//EN"
 "http://www.w3.org/TR/2001/REC-SVG-20010904/DTD/svg10.dtd">
<svg version="1.0" xmlns="http://www.w3.org/2000/svg"
 width="480.000000pt" height="579.000000pt" viewBox="0 0 480.000000 579.000000"
 preserveAspectRatio="xMidYMid meet">

<g transform="translate(0.000000,579.000000) scale(0.100000,-0.100000)"
fill="#000000" stroke="none">
<path d="M2337 5653 c-31 -76 -124 -302 -207 -503 -84 -201 -178 -428 -210
-505 -31 -77 -151 -365 -265 -640 -114 -275 -245 -590 -290 -700 -45 -110
-214 -517 -375 -905 -161 -388 -318 -768 -350 -845 -61 -148 -102 -247 -434
-1047 -113 -274 -206 -500 -206 -503 0 -3 118 -5 263 -5 l263 0 103 203 c57
111 132 256 166 322 34 66 122 237 195 380 73 143 168 328 210 410 43 83 225
438 405 790 180 352 330 643 334 647 3 4 58 -86 120 -200 63 -114 181 -326
261 -472 81 -146 216 -390 300 -543 84 -153 157 -274 160 -270 4 4 103 159
220 343 117 184 218 341 225 348 9 10 97 -146 423 -755 226 -422 463 -866 527
-985 l117 -218 254 0 c140 0 254 2 254 5 0 3 -49 124 -109 268 -236 569 -833
2008 -996 2402 -46 110 -250 603 -454 1095 -205 492 -476 1148 -604 1457 -128
309 -235 563 -238 563 -3 0 -31 -62 -62 -137z"/>
</g>
</svg>
