<?xml version="1.0" standalone="no"?>
<!DOCTYPE svg PUBLIC "-//W3C//DTD SVG 20010904//EN"
 "http://www.w3.org/TR/2001/REC-SVG-20010904/DTD/svg10.dtd">
<svg version="1.0" xmlns="http://www.w3.org/2000/svg"
 width="579.000000pt" height="480.000000pt" viewBox="0 0 579.000000 480.000000"
 preserveAspectRatio="xMidYMid meet">

<g transform="translate(0.000000,480.000000) scale(0.100000,-0.100000)"
fill="#000000" stroke="none">
<path d="M316 2833 c-3 -1083 -5 -1986 -6 -2008 0 -22 2 -64 6 -93 5 -44 3
-56 -11 -66 -18 -13 -13 -56 6 -56 5 0 9 -23 9 -50 l0 -50 2598 2 2597 3 0
1620 0 1620 -68 5 -68 5 1 518 0 517 -2530 0 -2530 0 -4 -1967z"/>
</g>
</svg>
